
<svg width="736" height="214" viewBox="0 0 736 214" fill="none" xmlns="http://www.w3.org/2000/svg">
<g clip-path="url(#clip0_49_2)">
<path d="M174.26 89.55L210.71 87.4699C209.51 81.0299 207.72 74.78 205.41 68.8L190.26 69.66L200.51 57.98C197.46 52.13 193.86 46.59 189.82 41.46L161.18 74.08C166.75 78.02 171.3 83.34 174.26 89.55Z" fill="#0083ff"/>
<path d="M105.02 83.7602C108.33 79.1602 112.82 75.0002 117.8 72.1002C118.45 71.7202 119.11 71.3602 119.78 71.0302L104.02 0.950195C97.56 1.0802 91.22 1.81017 85.1 3.08017L95.35 48.6702L57.38 12.9802C51.57 16.0102 46.08 19.5702 40.99 23.5902L105.02 83.7602Z" fill="#0083ff"/>
<path d="M98.1001 113.17C98.1001 113.17 98.1001 113.15 98.1001 113.13C97.8101 111.13 97.6401 109.09 97.6401 107.01C97.6401 102.44 98.4001 98.0699 99.7901 93.9799L18.7601 47.3799C15.2001 52.5799 12.1101 58.0899 9.52013 63.8999L64.2601 95.3799L0.790115 97.5299C0.520115 100.64 0.370117 103.8 0.370117 107C0.370117 110.2 0.52012 113.38 0.81012 116.49L98.1101 113.21C98.1001 113.19 98.1001 113.19 98.1001 113.17Z" fill="#0083ff"/>
<path d="M114.24 139.58C109.04 135.79 104.77 130.8 101.89 125L9.33008 149.69C11.9801 155.69 15.1601 161.41 18.8401 166.76L78.0201 150.98L41.1301 190.53C46.1601 194.49 51.5701 197.98 57.2701 200.99L114.37 139.81L114.24 139.58Z" fill="#0083ff"/>
<path d="M145.39 146.59C142.97 147.05 140.49 147.28 137.94 147.28C133.48 147.28 129.18 146.56 125.17 145.22L83.96 210.67C90.72 212.14 97.6999 212.94 104.86 213.05L127.46 177.12L128.58 210.73C135.08 209.36 141.35 207.38 147.35 204.86L145.39 146.59Z" fill="#0083ff"/>
<path d="M171 130.02C167.17 135.51 161.99 140.02 155.95 143.01V143.03L163.42 196.44C169.63 192.46 175.4 187.87 180.61 182.74L177.62 161.27L189.99 172.28C193.93 167.25 197.42 161.86 200.41 156.18L171 130.02Z" fill="#0083ff"/>
<path d="M212.11 116.43C212.67 110.19 212.68 103.72 212.09 97.4902L177.5 99.3903C178.76 105.96 178.29 113.58 176.16 119.8L204.97 146.34C207.58 139.84 209.54 133.04 210.82 125.99L201.12 117.05L212.11 116.43Z" fill="#0083ff"/>
<path d="M179.69 30.3302C175.12 25.9702 170.16 22.0002 164.87 18.5002L149.09 39.8602L147.55 9.2002C141.4 6.6102 134.94 4.57018 128.27 3.18018L131.49 67.2202C137.98 66.1202 145.11 66.7702 151.17 68.9202L179.69 30.3302Z" fill="#0083ff"/>
<path d="M296.76 149.65C288.73 149.65 281.52 148.02 275.12 144.77C268.72 141.52 263.68 136.8 259.99 130.62C256.3 124.44 254.46 117.01 254.46 108.33V105.73C254.46 97.0501 256.3 89.6302 259.99 83.4402C263.68 77.2602 268.72 72.5402 275.12 69.2902C281.52 66.0402 288.73 64.4102 296.76 64.4102C304.78 64.4102 311.99 66.0402 318.4 69.2902C324.8 72.5402 329.84 77.2602 333.53 83.4402C337.22 89.6202 339.06 97.0501 339.06 105.73V108.33C339.06 117.01 337.21 124.44 333.53 130.62C329.84 136.8 324.8 141.52 318.4 144.77C311.99 148.03 304.78 149.65 296.76 149.65ZM296.76 131.44C303.05 131.44 308.25 129.41 312.38 125.34C316.5 121.28 318.56 115.45 318.56 107.85V106.22C318.56 98.6301 316.53 92.8001 312.46 88.7301C308.39 84.6601 303.16 82.6302 296.76 82.6302C290.47 82.6302 285.26 84.6601 281.14 88.7301C277.02 92.8001 274.96 98.6301 274.96 106.22V107.85C274.96 115.44 277.02 121.27 281.14 125.34C285.26 129.4 290.47 131.44 296.76 131.44Z" fill="#0083ff"/>
<path d="M390.46 149.65C384.06 149.65 378.07 148.05 372.49 144.85C366.9 141.65 362.43 136.96 359.07 130.78C355.71 124.6 354.03 117.12 354.03 108.33V105.73C354.03 96.95 355.71 89.46 359.07 83.28C362.43 77.1 366.88 72.41 372.41 69.21C377.94 66.01 383.96 64.41 390.47 64.41C395.35 64.41 399.44 64.98 402.75 66.12C406.06 67.26 408.74 68.7 410.8 70.43C412.86 72.17 414.43 74.01 415.52 75.96H418.45V33.5H438.95V147.37H418.78V137.61H415.85C414 140.65 411.16 143.41 407.31 145.91C403.44 148.41 397.83 149.65 390.46 149.65ZM396.64 131.76C402.93 131.76 408.19 129.73 412.42 125.66C416.65 121.59 418.76 115.65 418.76 107.85V106.22C418.76 98.41 416.67 92.47 412.5 88.41C408.32 84.34 403.04 82.31 396.64 82.31C390.35 82.31 385.09 84.34 380.86 88.41C376.63 92.47 374.52 98.41 374.52 106.22V107.85C374.52 115.66 376.63 121.6 380.86 125.66C385.09 129.73 390.35 131.76 396.64 131.76Z" fill="#0083ff"/>
<path d="M461.7 147.38V33.5098H482.2V147.38H461.7Z" fill="#0083ff"/>
<path d="M515.22 57.2603C511.53 57.2603 508.41 56.0702 505.87 53.6802C503.32 51.3002 502.05 48.1502 502.05 44.2502C502.05 40.3502 503.32 37.2003 505.87 34.8203C508.42 32.4403 511.54 31.2402 515.22 31.2402C519.02 31.2402 522.16 32.4303 524.65 34.8203C527.14 37.2103 528.39 40.3502 528.39 44.2502C528.39 48.1502 527.14 51.3002 524.65 53.6802C522.16 56.0702 519.02 57.2603 515.22 57.2603ZM504.97 147.38V66.7003H525.47V147.38H504.97Z" fill="#0083ff"/>
<path d="M586.15 149.65C578.34 149.65 571.27 148.02 564.92 144.77C558.58 141.52 553.56 136.8 549.87 130.62C546.18 124.44 544.34 116.96 544.34 108.17V105.89C544.34 97.1102 546.18 89.6202 549.87 83.4402C553.56 77.2602 558.57 72.5402 564.92 69.2902C571.26 66.0402 578.34 64.4102 586.15 64.4102C593.85 64.4102 600.46 65.7702 605.99 68.4802C611.52 71.1902 615.99 74.9101 619.41 79.6201C622.83 84.3401 625.08 89.6802 626.16 95.6402L606.32 99.8701C605.89 96.6201 604.91 93.6902 603.39 91.0902C601.87 88.4902 599.73 86.4301 596.96 84.9101C594.19 83.3901 590.75 82.6302 586.63 82.6302C582.51 82.6302 578.79 83.5302 575.49 85.3202C572.18 87.1102 569.58 89.7701 567.68 93.2901C565.78 96.8201 564.83 101.13 564.83 106.22V107.85C564.83 112.95 565.78 117.26 567.68 120.78C569.58 124.31 572.18 126.96 575.49 128.75C578.8 130.54 582.51 131.43 586.63 131.43C592.81 131.43 597.5 129.83 600.7 126.63C603.9 123.43 605.93 119.23 606.8 114.02L626.64 118.74C625.23 124.49 622.82 129.72 619.4 134.44C615.98 139.16 611.51 142.87 605.98 145.58C600.46 148.3 593.84 149.65 586.15 149.65Z" fill="#0083ff"/>
<path d="M676.1 149.65C669.59 149.65 663.57 148.05 658.04 144.85C652.51 141.65 648.06 136.96 644.7 130.78C641.34 124.6 639.66 117.12 639.66 108.33V105.73C639.66 96.9501 641.34 89.4602 644.7 83.2802C648.06 77.1002 652.53 72.4101 658.12 69.2101C663.7 66.0101 669.69 64.4102 676.09 64.4102C683.46 64.4102 689.08 65.6302 692.93 68.0702C696.78 70.5102 699.62 73.3002 701.47 76.4502H704.4V66.6902H724.57V125.58C724.57 128.83 726.09 130.46 729.13 130.46H735.64V147.38H719.37C715.47 147.38 712.24 146.3 709.69 144.13C707.14 141.96 705.87 138.98 705.87 135.18V135.02H702.94C701.09 139.03 698.14 142.48 694.08 145.35C690.01 148.22 684.02 149.65 676.1 149.65ZM682.28 131.76C688.68 131.76 693.96 129.73 698.14 125.66C702.31 121.59 704.4 115.65 704.4 107.85V106.22C704.4 98.4101 702.29 92.4701 698.06 88.4101C693.83 84.3401 688.57 82.3102 682.28 82.3102C675.99 82.3102 670.73 84.3401 666.5 88.4101C662.27 92.4701 660.16 98.4101 660.16 106.22V107.85C660.16 115.66 662.27 121.6 666.5 125.66C670.73 129.73 675.99 131.76 682.28 131.76Z" fill="#0083ff"/>
</g>
<defs>
<clipPath id="clip0_49_2">
<rect width="736" height="214" fill="#0083ff"/>
</clipPath>
</defs>
</svg>
